<mxfile host="app.diagrams.net" modified="2024-03-21T18:29:00.124Z" agent="Mozilla/5.0 (Windows NT 10.0; Win64; x64) AppleWebKit/537.36 (KHTML, like Gecko) Chrome/122.0.0.0 Safari/537.36 Edg/122.0.0.0" etag="osEdB8LTEx6jrJGn1pIt" version="24.0.7" type="device">
  <diagram name="Page-1" id="_6h9UQy-8LALpUOp7FOK">
    <mxGraphModel dx="1386" dy="785" grid="1" gridSize="10" guides="1" tooltips="1" connect="1" arrows="1" fold="1" page="1" pageScale="1" pageWidth="850" pageHeight="1100" math="0" shadow="0">
      <root>
        <mxCell id="0" />
        <mxCell id="1" parent="0" />
        <mxCell id="GuPqa28CCYoDrANLIjTs-3" style="edgeStyle=orthogonalEdgeStyle;rounded=0;orthogonalLoop=1;jettySize=auto;html=1;exitX=0.5;exitY=1;exitDx=0;exitDy=0;entryX=0.5;entryY=0;entryDx=0;entryDy=0;" edge="1" parent="1" source="GuPqa28CCYoDrANLIjTs-1" target="GuPqa28CCYoDrANLIjTs-2">
          <mxGeometry relative="1" as="geometry" />
        </mxCell>
        <mxCell id="GuPqa28CCYoDrANLIjTs-7" style="edgeStyle=orthogonalEdgeStyle;rounded=0;orthogonalLoop=1;jettySize=auto;html=1;" edge="1" parent="1" source="GuPqa28CCYoDrANLIjTs-1" target="GuPqa28CCYoDrANLIjTs-4">
          <mxGeometry relative="1" as="geometry" />
        </mxCell>
        <mxCell id="GuPqa28CCYoDrANLIjTs-8" style="edgeStyle=orthogonalEdgeStyle;rounded=0;orthogonalLoop=1;jettySize=auto;html=1;exitX=0.5;exitY=1;exitDx=0;exitDy=0;entryX=0.5;entryY=0;entryDx=0;entryDy=0;" edge="1" parent="1" source="GuPqa28CCYoDrANLIjTs-1" target="GuPqa28CCYoDrANLIjTs-5">
          <mxGeometry relative="1" as="geometry" />
        </mxCell>
        <mxCell id="GuPqa28CCYoDrANLIjTs-9" style="edgeStyle=orthogonalEdgeStyle;rounded=0;orthogonalLoop=1;jettySize=auto;html=1;exitX=0.5;exitY=1;exitDx=0;exitDy=0;" edge="1" parent="1" source="GuPqa28CCYoDrANLIjTs-1" target="GuPqa28CCYoDrANLIjTs-6">
          <mxGeometry relative="1" as="geometry" />
        </mxCell>
        <mxCell id="GuPqa28CCYoDrANLIjTs-1" value="&lt;pre style=&quot;text-wrap: wrap; margin-top: 0px; margin-bottom: 4px; padding: 10px; box-sizing: border-box; border: 1px solid var(--cib-color-stroke-neutral-primary); background: var(--cib-color-syntax-background-surface); border-radius: var(--cib-border-radius-large); color: rgb(17, 17, 17); font-size: 16px; text-align: start;&quot;&gt;&lt;code style=&quot;font-size: var(--cib-type-body1-font-size); line-height: var(--cib-type-body1-line-height); font-weight: var(--cib-type-body1-font-weight); font-variation-settings: var(--cib-type-body1-font-variation-settings);&quot;&gt;Приложение &quot;Планировщик задач&quot;&lt;/code&gt;&lt;/pre&gt;" style="rounded=0;whiteSpace=wrap;html=1;" vertex="1" parent="1">
          <mxGeometry x="290" y="120" width="290" height="60" as="geometry" />
        </mxCell>
        <mxCell id="GuPqa28CCYoDrANLIjTs-13" value="" style="edgeStyle=orthogonalEdgeStyle;rounded=0;orthogonalLoop=1;jettySize=auto;html=1;" edge="1" parent="1" source="GuPqa28CCYoDrANLIjTs-2" target="GuPqa28CCYoDrANLIjTs-10">
          <mxGeometry relative="1" as="geometry" />
        </mxCell>
        <mxCell id="GuPqa28CCYoDrANLIjTs-2" value="&#xa;&lt;pre style=&quot;white-space: pre-wrap; margin: 0px 0px 4px; padding: 10px; box-sizing: border-box; border: 1px solid var(--cib-color-stroke-neutral-primary); background: var(--cib-color-syntax-background-surface); border-radius: var(--cib-border-radius-large); color: rgb(17, 17, 17); font-size: 16px; font-style: normal; font-variant-ligatures: normal; font-variant-caps: normal; font-weight: 400; letter-spacing: normal; orphans: 2; text-align: start; text-indent: 0px; text-transform: none; widows: 2; word-spacing: 0px; -webkit-text-stroke-width: 0px; text-decoration-thickness: initial; text-decoration-style: initial; text-decoration-color: initial;&quot;&gt;&lt;code style=&quot;white-space: pre-wrap; font-size: var(--cib-type-body1-font-size); line-height: var(--cib-type-body1-line-height); font-weight: var(--cib-type-body1-font-weight); font-variation-settings: var(--cib-type-body1-font-variation-settings);&quot;&gt;Авторизация и регистрация&lt;/code&gt;&lt;/pre&gt;&#xa;&#xa;" style="rounded=0;whiteSpace=wrap;html=1;" vertex="1" parent="1">
          <mxGeometry x="130" y="230" width="140" height="60" as="geometry" />
        </mxCell>
        <mxCell id="GuPqa28CCYoDrANLIjTs-24" style="edgeStyle=orthogonalEdgeStyle;rounded=0;orthogonalLoop=1;jettySize=auto;html=1;" edge="1" parent="1" source="GuPqa28CCYoDrANLIjTs-4" target="GuPqa28CCYoDrANLIjTs-16">
          <mxGeometry relative="1" as="geometry" />
        </mxCell>
        <mxCell id="GuPqa28CCYoDrANLIjTs-4" value="&#xa;&lt;pre style=&quot;white-space: pre-wrap; margin: 0px 0px 4px; padding: 10px; box-sizing: border-box; border: 1px solid var(--cib-color-stroke-neutral-primary); background: var(--cib-color-syntax-background-surface); border-radius: var(--cib-border-radius-large); color: rgb(17, 17, 17); font-size: 16px; font-style: normal; font-variant-ligatures: normal; font-variant-caps: normal; font-weight: 400; letter-spacing: normal; orphans: 2; text-align: start; text-indent: 0px; text-transform: none; widows: 2; word-spacing: 0px; -webkit-text-stroke-width: 0px; text-decoration-thickness: initial; text-decoration-style: initial; text-decoration-color: initial;&quot;&gt;&lt;code style=&quot;white-space: pre-wrap; font-size: var(--cib-type-body1-font-size); line-height: var(--cib-type-body1-line-height); font-weight: var(--cib-type-body1-font-weight); font-variation-settings: var(--cib-type-body1-font-variation-settings);&quot;&gt;Доска задач (Kanban)&lt;/code&gt;&lt;/pre&gt;&#xa;&#xa;" style="rounded=0;whiteSpace=wrap;html=1;" vertex="1" parent="1">
          <mxGeometry x="305" y="230" width="145" height="60" as="geometry" />
        </mxCell>
        <mxCell id="GuPqa28CCYoDrANLIjTs-28" value="" style="edgeStyle=orthogonalEdgeStyle;rounded=0;orthogonalLoop=1;jettySize=auto;html=1;" edge="1" parent="1" source="GuPqa28CCYoDrANLIjTs-5" target="GuPqa28CCYoDrANLIjTs-21">
          <mxGeometry relative="1" as="geometry" />
        </mxCell>
        <mxCell id="GuPqa28CCYoDrANLIjTs-5" value="&#xa;&lt;pre style=&quot;white-space: pre-wrap; margin: 0px 0px 4px; padding: 10px; box-sizing: border-box; border: 1px solid var(--cib-color-stroke-neutral-primary); background: var(--cib-color-syntax-background-surface); border-radius: var(--cib-border-radius-large); color: rgb(17, 17, 17); font-size: 16px; font-style: normal; font-variant-ligatures: normal; font-variant-caps: normal; font-weight: 400; letter-spacing: normal; orphans: 2; text-align: start; text-indent: 0px; text-transform: none; widows: 2; word-spacing: 0px; -webkit-text-stroke-width: 0px; text-decoration-thickness: initial; text-decoration-style: initial; text-decoration-color: initial;&quot;&gt;&lt;code style=&quot;white-space: pre-wrap; font-size: var(--cib-type-body1-font-size); line-height: var(--cib-type-body1-line-height); font-weight: var(--cib-type-body1-font-weight); font-variation-settings: var(--cib-type-body1-font-variation-settings);&quot;&gt;Таймер Pomodoro&lt;/code&gt;&lt;/pre&gt;&#xa;&#xa;" style="rounded=0;whiteSpace=wrap;html=1;" vertex="1" parent="1">
          <mxGeometry x="480" y="230" width="120" height="60" as="geometry" />
        </mxCell>
        <mxCell id="GuPqa28CCYoDrANLIjTs-29" style="edgeStyle=orthogonalEdgeStyle;rounded=0;orthogonalLoop=1;jettySize=auto;html=1;exitX=0.5;exitY=1;exitDx=0;exitDy=0;entryX=0.5;entryY=0;entryDx=0;entryDy=0;" edge="1" parent="1" source="GuPqa28CCYoDrANLIjTs-6" target="GuPqa28CCYoDrANLIjTs-22">
          <mxGeometry relative="1" as="geometry" />
        </mxCell>
        <mxCell id="GuPqa28CCYoDrANLIjTs-6" value="&#xa;&lt;pre style=&quot;white-space: pre-wrap; margin: 0px 0px 4px; padding: 10px; box-sizing: border-box; border: 1px solid var(--cib-color-stroke-neutral-primary); background: var(--cib-color-syntax-background-surface); border-radius: var(--cib-border-radius-large); color: rgb(17, 17, 17); font-size: 16px; font-style: normal; font-variant-ligatures: normal; font-variant-caps: normal; font-weight: 400; letter-spacing: normal; orphans: 2; text-align: start; text-indent: 0px; text-transform: none; widows: 2; word-spacing: 0px; -webkit-text-stroke-width: 0px; text-decoration-thickness: initial; text-decoration-style: initial; text-decoration-color: initial;&quot;&gt;&lt;code style=&quot;white-space: pre-wrap; font-size: var(--cib-type-body1-font-size); line-height: var(--cib-type-body1-line-height); font-weight: var(--cib-type-body1-font-weight); font-variation-settings: var(--cib-type-body1-font-variation-settings);&quot;&gt;Настройки приложения&lt;/code&gt;&lt;/pre&gt;&#xa;&#xa;" style="rounded=0;whiteSpace=wrap;html=1;" vertex="1" parent="1">
          <mxGeometry x="620" y="230" width="120" height="60" as="geometry" />
        </mxCell>
        <mxCell id="GuPqa28CCYoDrANLIjTs-14" style="edgeStyle=orthogonalEdgeStyle;rounded=0;orthogonalLoop=1;jettySize=auto;html=1;exitX=0.5;exitY=1;exitDx=0;exitDy=0;entryX=0.5;entryY=0;entryDx=0;entryDy=0;" edge="1" parent="1" source="GuPqa28CCYoDrANLIjTs-10" target="GuPqa28CCYoDrANLIjTs-12">
          <mxGeometry relative="1" as="geometry" />
        </mxCell>
        <mxCell id="GuPqa28CCYoDrANLIjTs-10" value="&lt;pre style=&quot;text-wrap: wrap; margin-top: 0px; margin-bottom: 4px; padding: 10px; box-sizing: border-box; border: 1px solid var(--cib-color-stroke-neutral-primary); background: var(--cib-color-syntax-background-surface); border-radius: var(--cib-border-radius-large); color: rgb(17, 17, 17); font-size: 16px; text-align: start;&quot;&gt;&lt;code style=&quot;font-size: var(--cib-type-body1-font-size); line-height: var(--cib-type-body1-line-height); font-weight: var(--cib-type-body1-font-weight); font-variation-settings: var(--cib-type-body1-font-variation-settings);&quot;&gt;Вход в систему&lt;/code&gt;&lt;/pre&gt;" style="rounded=0;whiteSpace=wrap;html=1;" vertex="1" parent="1">
          <mxGeometry x="130" y="320" width="140" height="60" as="geometry" />
        </mxCell>
        <mxCell id="GuPqa28CCYoDrANLIjTs-11" value="&lt;pre style=&quot;text-wrap: wrap; margin-top: 0px; margin-bottom: 4px; padding: 10px; box-sizing: border-box; border: 1px solid var(--cib-color-stroke-neutral-primary); background: var(--cib-color-syntax-background-surface); border-radius: var(--cib-border-radius-large); color: rgb(17, 17, 17); font-size: 16px; text-align: start;&quot;&gt;&lt;code style=&quot;font-size: var(--cib-type-body1-font-size); line-height: var(--cib-type-body1-line-height); font-weight: var(--cib-type-body1-font-weight); font-variation-settings: var(--cib-type-body1-font-variation-settings);&quot;&gt;Восстановление пароля&lt;/code&gt;&lt;/pre&gt;" style="rounded=0;whiteSpace=wrap;html=1;" vertex="1" parent="1">
          <mxGeometry x="130" y="520" width="140" height="60" as="geometry" />
        </mxCell>
        <mxCell id="GuPqa28CCYoDrANLIjTs-15" style="edgeStyle=orthogonalEdgeStyle;rounded=0;orthogonalLoop=1;jettySize=auto;html=1;exitX=0.5;exitY=1;exitDx=0;exitDy=0;" edge="1" parent="1" source="GuPqa28CCYoDrANLIjTs-12" target="GuPqa28CCYoDrANLIjTs-11">
          <mxGeometry relative="1" as="geometry" />
        </mxCell>
        <mxCell id="GuPqa28CCYoDrANLIjTs-12" value="&lt;pre style=&quot;text-wrap: wrap; margin-top: 0px; margin-bottom: 4px; padding: 10px; box-sizing: border-box; border: 1px solid var(--cib-color-stroke-neutral-primary); background: var(--cib-color-syntax-background-surface); border-radius: var(--cib-border-radius-large); color: rgb(17, 17, 17); font-size: 16px; text-align: start;&quot;&gt;&lt;code style=&quot;font-size: var(--cib-type-body1-font-size); line-height: var(--cib-type-body1-line-height); font-weight: var(--cib-type-body1-font-weight); font-variation-settings: var(--cib-type-body1-font-variation-settings);&quot;&gt;Регистрация&lt;/code&gt;&lt;/pre&gt;" style="rounded=0;whiteSpace=wrap;html=1;" vertex="1" parent="1">
          <mxGeometry x="130" y="420" width="140" height="60" as="geometry" />
        </mxCell>
        <mxCell id="GuPqa28CCYoDrANLIjTs-25" style="edgeStyle=orthogonalEdgeStyle;rounded=0;orthogonalLoop=1;jettySize=auto;html=1;exitX=0.5;exitY=1;exitDx=0;exitDy=0;" edge="1" parent="1" source="GuPqa28CCYoDrANLIjTs-16" target="GuPqa28CCYoDrANLIjTs-17">
          <mxGeometry relative="1" as="geometry" />
        </mxCell>
        <mxCell id="GuPqa28CCYoDrANLIjTs-16" value="&lt;pre style=&quot;text-wrap: wrap; margin-top: 0px; margin-bottom: 4px; padding: 10px; box-sizing: border-box; border: 1px solid var(--cib-color-stroke-neutral-primary); background: var(--cib-color-syntax-background-surface); border-radius: var(--cib-border-radius-large); color: rgb(17, 17, 17); font-size: 16px; text-align: start;&quot;&gt;&lt;code style=&quot;font-size: var(--cib-type-body1-font-size); line-height: var(--cib-type-body1-line-height); font-weight: var(--cib-type-body1-font-weight); font-variation-settings: var(--cib-type-body1-font-variation-settings);&quot;&gt;Список задач&lt;/code&gt;&lt;/pre&gt;" style="rounded=0;whiteSpace=wrap;html=1;" vertex="1" parent="1">
          <mxGeometry x="305" y="310" width="145" height="60" as="geometry" />
        </mxCell>
        <mxCell id="GuPqa28CCYoDrANLIjTs-26" style="edgeStyle=orthogonalEdgeStyle;rounded=0;orthogonalLoop=1;jettySize=auto;html=1;exitX=0.5;exitY=1;exitDx=0;exitDy=0;entryX=0.5;entryY=0;entryDx=0;entryDy=0;" edge="1" parent="1" source="GuPqa28CCYoDrANLIjTs-17" target="GuPqa28CCYoDrANLIjTs-18">
          <mxGeometry relative="1" as="geometry" />
        </mxCell>
        <mxCell id="GuPqa28CCYoDrANLIjTs-17" value="&lt;pre style=&quot;text-wrap: wrap; margin-top: 0px; margin-bottom: 4px; padding: 10px; box-sizing: border-box; border: 1px solid var(--cib-color-stroke-neutral-primary); background: var(--cib-color-syntax-background-surface); border-radius: var(--cib-border-radius-large); color: rgb(17, 17, 17); font-size: 16px; text-align: start;&quot;&gt;&lt;pre style=&quot;text-wrap: wrap; margin-top: 0px; margin-bottom: 4px; padding: 10px; box-sizing: border-box; border: 1px solid var(--cib-color-stroke-neutral-primary); background: var(--cib-color-syntax-background-surface); border-radius: var(--cib-border-radius-large);&quot;&gt;&lt;code style=&quot;font-size: var(--cib-type-body1-font-size); line-height: var(--cib-type-body1-line-height); font-weight: var(--cib-type-body1-font-weight); font-variation-settings: var(--cib-type-body1-font-variation-settings);&quot;&gt;Добавление новой задачи&lt;/code&gt;&lt;/pre&gt;&lt;/pre&gt;" style="rounded=0;whiteSpace=wrap;html=1;" vertex="1" parent="1">
          <mxGeometry x="302.5" y="390" width="147.5" height="60" as="geometry" />
        </mxCell>
        <mxCell id="GuPqa28CCYoDrANLIjTs-27" style="edgeStyle=orthogonalEdgeStyle;rounded=0;orthogonalLoop=1;jettySize=auto;html=1;exitX=0.5;exitY=1;exitDx=0;exitDy=0;" edge="1" parent="1" source="GuPqa28CCYoDrANLIjTs-18" target="GuPqa28CCYoDrANLIjTs-19">
          <mxGeometry relative="1" as="geometry" />
        </mxCell>
        <mxCell id="GuPqa28CCYoDrANLIjTs-18" value="&lt;pre style=&quot;text-wrap: wrap; margin-top: 0px; margin-bottom: 4px; padding: 10px; box-sizing: border-box; border: 1px solid var(--cib-color-stroke-neutral-primary); background: var(--cib-color-syntax-background-surface); border-radius: var(--cib-border-radius-large); color: rgb(17, 17, 17); font-size: 16px; text-align: start;&quot;&gt;&lt;pre style=&quot;text-wrap: wrap; margin-top: 0px; margin-bottom: 4px; padding: 10px; box-sizing: border-box; border: 1px solid var(--cib-color-stroke-neutral-primary); background: var(--cib-color-syntax-background-surface); border-radius: var(--cib-border-radius-large);&quot;&gt;&lt;code style=&quot;font-size: var(--cib-type-body1-font-size); line-height: var(--cib-type-body1-line-height); font-weight: var(--cib-type-body1-font-weight); font-variation-settings: var(--cib-type-body1-font-variation-settings);&quot;&gt;Удаление задачи&lt;/code&gt;&lt;/pre&gt;&lt;/pre&gt;" style="rounded=0;whiteSpace=wrap;html=1;" vertex="1" parent="1">
          <mxGeometry x="302.5" y="470" width="147.5" height="60" as="geometry" />
        </mxCell>
        <mxCell id="GuPqa28CCYoDrANLIjTs-19" value="&lt;pre style=&quot;text-wrap: wrap; margin-top: 0px; margin-bottom: 4px; padding: 10px; box-sizing: border-box; border: 1px solid var(--cib-color-stroke-neutral-primary); background: var(--cib-color-syntax-background-surface); border-radius: var(--cib-border-radius-large); color: rgb(17, 17, 17); font-size: 16px; text-align: start;&quot;&gt;&lt;code style=&quot;font-size: var(--cib-type-body1-font-size); line-height: var(--cib-type-body1-line-height); font-weight: var(--cib-type-body1-font-weight); font-variation-settings: var(--cib-type-body1-font-variation-settings);&quot;&gt;Редактирование задачи&lt;/code&gt;&lt;/pre&gt;" style="rounded=0;whiteSpace=wrap;html=1;" vertex="1" parent="1">
          <mxGeometry x="302.5" y="550" width="147.5" height="60" as="geometry" />
        </mxCell>
        <mxCell id="GuPqa28CCYoDrANLIjTs-20" value="&lt;pre style=&quot;text-wrap: wrap; margin-top: 0px; margin-bottom: 4px; padding: 10px; box-sizing: border-box; border: 1px solid var(--cib-color-stroke-neutral-primary); background: var(--cib-color-syntax-background-surface); border-radius: var(--cib-border-radius-large); color: rgb(17, 17, 17); font-size: 16px; text-align: start;&quot;&gt;&lt;code style=&quot;font-size: var(--cib-type-body1-font-size); line-height: var(--cib-type-body1-line-height); font-weight: var(--cib-type-body1-font-weight); font-variation-settings: var(--cib-type-body1-font-variation-settings);&quot;&gt;Настройка таймера&lt;/code&gt;&lt;/pre&gt;" style="rounded=0;whiteSpace=wrap;html=1;" vertex="1" parent="1">
          <mxGeometry x="620" y="480" width="120" height="60" as="geometry" />
        </mxCell>
        <mxCell id="GuPqa28CCYoDrANLIjTs-21" value="&lt;pre style=&quot;text-wrap: wrap; margin-top: 0px; margin-bottom: 4px; padding: 10px; box-sizing: border-box; border: 1px solid var(--cib-color-stroke-neutral-primary); background: var(--cib-color-syntax-background-surface); border-radius: var(--cib-border-radius-large); color: rgb(17, 17, 17); font-size: 16px; text-align: start;&quot;&gt;&lt;code style=&quot;font-size: var(--cib-type-body1-font-size); line-height: var(--cib-type-body1-line-height); font-weight: var(--cib-type-body1-font-weight); font-variation-settings: var(--cib-type-body1-font-variation-settings);&quot;&gt;Запуск/остановка таймера&lt;/code&gt;&lt;/pre&gt;" style="rounded=0;whiteSpace=wrap;html=1;" vertex="1" parent="1">
          <mxGeometry x="480" y="310" width="120" height="60" as="geometry" />
        </mxCell>
        <mxCell id="GuPqa28CCYoDrANLIjTs-30" style="edgeStyle=orthogonalEdgeStyle;rounded=0;orthogonalLoop=1;jettySize=auto;html=1;exitX=0.5;exitY=1;exitDx=0;exitDy=0;" edge="1" parent="1" source="GuPqa28CCYoDrANLIjTs-22" target="GuPqa28CCYoDrANLIjTs-23">
          <mxGeometry relative="1" as="geometry" />
        </mxCell>
        <mxCell id="GuPqa28CCYoDrANLIjTs-22" value="&lt;pre style=&quot;text-wrap: wrap; margin-top: 0px; margin-bottom: 4px; padding: 10px; box-sizing: border-box; border: 1px solid var(--cib-color-stroke-neutral-primary); background: var(--cib-color-syntax-background-surface); border-radius: var(--cib-border-radius-large); color: rgb(17, 17, 17); font-size: 16px; text-align: start;&quot;&gt;&lt;code style=&quot;font-size: var(--cib-type-body1-font-size); line-height: var(--cib-type-body1-line-height); font-weight: var(--cib-type-body1-font-weight); font-variation-settings: var(--cib-type-body1-font-variation-settings);&quot;&gt; Настройка параметров пользователя&lt;/code&gt;&lt;/pre&gt;" style="rounded=0;whiteSpace=wrap;html=1;" vertex="1" parent="1">
          <mxGeometry x="620" y="310" width="120" height="60" as="geometry" />
        </mxCell>
        <mxCell id="GuPqa28CCYoDrANLIjTs-31" style="edgeStyle=orthogonalEdgeStyle;rounded=0;orthogonalLoop=1;jettySize=auto;html=1;exitX=0.5;exitY=1;exitDx=0;exitDy=0;" edge="1" parent="1" source="GuPqa28CCYoDrANLIjTs-23" target="GuPqa28CCYoDrANLIjTs-20">
          <mxGeometry relative="1" as="geometry" />
        </mxCell>
        <mxCell id="GuPqa28CCYoDrANLIjTs-23" value="&lt;br&gt;&lt;pre style=&quot;white-space: pre-wrap; margin: 0px 0px 4px; padding: 10px; box-sizing: border-box; border: 1px solid var(--cib-color-stroke-neutral-primary); background: var(--cib-color-syntax-background-surface); border-radius: var(--cib-border-radius-large); color: rgb(17, 17, 17); font-size: 16px; font-style: normal; font-variant-ligatures: normal; font-variant-caps: normal; font-weight: 400; letter-spacing: normal; orphans: 2; text-align: start; text-indent: 0px; text-transform: none; widows: 2; word-spacing: 0px; -webkit-text-stroke-width: 0px; text-decoration-thickness: initial; text-decoration-style: initial; text-decoration-color: initial;&quot;&gt;&lt;code style=&quot;white-space: pre-wrap; font-size: var(--cib-type-body1-font-size); line-height: var(--cib-type-body1-line-height); font-weight: var(--cib-type-body1-font-weight); font-variation-settings: var(--cib-type-body1-font-variation-settings);&quot;&gt;Настройка параметров приложения&lt;/code&gt;&lt;/pre&gt;" style="rounded=0;whiteSpace=wrap;html=1;" vertex="1" parent="1">
          <mxGeometry x="620" y="390" width="120" height="70" as="geometry" />
        </mxCell>
      </root>
    </mxGraphModel>
  </diagram>
</mxfile>
